<?xml version="1.0" encoding="utf-8"?>
<!-- Generator: Adobe Illustrator 24.3.0, SVG Export Plug-In . SVG Version: 6.00 Build 0)  -->
<svg version="1.1" id="Layer_1" xmlns="http://www.w3.org/2000/svg" xmlns:xlink="http://www.w3.org/1999/xlink" x="0px" y="0px"
	 viewBox="0 0 4096 409.6" style="enable-background:new 0 0 4096 409.6;" xml:space="preserve">
<style type="text/css">
	.st0{fill:#111827;}
	.st1{fill:#14142F;}
	.st2{fill:#240455;}
	.st3{fill:#161234;}
	.st4{fill:#240357;}
	.st5{fill:#150B37;}
	.st6{fill:#1B0D41;}
	.st7{fill:#1B0D40;}
	.st8{fill:#141031;}
	.st9{fill:#220650;}
	.st10{fill:#121729;}
	.st11{fill:#171136;}
	.st12{fill:#190044;}
	.st13{fill:#14152F;}
	.st14{fill:#1D0B44;}
	.st15{fill:#1E0948;}
	.st16{fill:#12142C;}
	.st17{fill:#180342;}
	.st18{fill:#16093A;}
	.st19{fill:#27005C;}
	.st20{fill:#180341;}
	.st21{fill:#1A0E3D;}
	.st22{fill:#14152E;}
	.st23{fill:#21074D;}
	.st24{fill:#230552;}
	.st25{fill:#17053F;}
	.st26{fill:#1C0C43;}
	.st27{fill:#16083B;}
	.st28{fill:#220551;}
	.st29{fill:#181039;}
	.st30{fill:#160A39;}
	.st31{fill:#20074D;}
	.st32{fill:#151332;}
	.st33{fill:#140E33;}
	.st34{fill:#13112F;}
	.st35{fill:#160939;}
	.st36{fill:#131130;}
	.st37{fill:#26015C;}
	.st38{fill:#180440;}
	.st39{fill:#12152B;}
	.st40{fill:#12172A;}
	.st41{fill:#181138;}
	.st42{fill:#190F3B;}
	.st43{fill:#240355;}
	.st44{fill:#1F084A;}
	.st45{fill:#12162A;}
	.st46{fill:#171137;}
	.st47{fill:#190144;}
	.st48{fill:#13132D;}
	.st49{fill:#1E0A46;}
	.st50{fill:#111728;}
</style>
<g transform="scale(4.2845188284518825)">
	<rect x="31.9" y="31.9" class="st0" width="31.9" height="31.9"/>
	<rect x="31.9" y="31.9" class="st1" width="15.9" height="15.9"/>
	<rect x="47.8" y="47.8" class="st2" width="15.9" height="15.9"/>
	<rect x="95.6" y="31.9" class="st0" width="31.9" height="31.9"/>
	<rect x="111.5" y="31.9" class="st3" width="15.9" height="15.9"/>
	<rect x="111.5" y="47.8" class="st4" width="15.9" height="15.9"/>
	<rect x="191.2" y="31.9" class="st0" width="31.9" height="31.9"/>
	<rect x="191.2" y="31.9" class="st5" width="15.9" height="15.9"/>
	<rect x="191.2" y="47.8" class="st6" width="15.9" height="15.9"/>
	<rect x="223.1" y="31.9" class="st0" width="31.9" height="31.9"/>
	<rect x="254.9" y="31.9" class="st0" width="31.9" height="31.9"/>
	<rect x="270.9" y="31.9" class="st7" width="15.9" height="15.9"/>
	<rect x="286.8" y="31.9" class="st8" width="31.9" height="31.9"/>
	<rect x="318.7" y="31.9" class="st9" width="31.9" height="31.9"/>
	<rect x="382.4" y="31.9" class="st0" width="31.9" height="31.9"/>
	<rect x="398.3" y="47.8" class="st10" width="15.9" height="15.9"/>
	<rect x="414.3" y="31.9" class="st0" width="31.9" height="31.9"/>
	<rect x="430.2" y="47.8" class="st11" width="15.9" height="15.9"/>
	<rect x="509.9" y="31.9" class="st12" width="31.9" height="31.9"/>
	<rect x="573.6" y="31.9" class="st0" width="31.9" height="31.9"/>
	<rect x="589.5" y="31.9" class="st13" width="15.9" height="15.9"/>
	<rect x="669.2" y="31.9" class="st14" width="31.9" height="31.9"/>
	<rect x="732.9" y="31.9" class="st15" width="31.9" height="31.9"/>
	<rect x="796.7" y="31.9" class="st0" width="31.9" height="31.9"/>
	<rect x="892.3" y="31.9" class="st0" width="31.9" height="31.9"/>
	<rect x="908.2" y="47.8" class="st16" width="15.9" height="15.9"/>
	<rect x="0" y="63.7" class="st0" width="31.9" height="31.9"/>
	<rect x="0" y="63.7" class="st17" width="15.9" height="15.9"/>
	<rect x="0" y="79.7" class="st18" width="15.9" height="15.9"/>
	<rect x="15.9" y="79.7" class="st19" width="15.9" height="15.9"/>
	<rect x="63.7" y="63.7" class="st20" width="31.9" height="31.9"/>
	<rect x="95.6" y="63.7" class="st21" width="31.9" height="31.9"/>
	<rect x="127.5" y="63.7" class="st22" width="31.9" height="31.9"/>
	<rect x="159.3" y="63.7" class="st0" width="31.9" height="31.9"/>
	<rect x="175.3" y="63.7" class="st23" width="15.9" height="15.9"/>
	<rect x="159.3" y="79.7" class="st24" width="15.9" height="15.9"/>
	<rect x="175.3" y="79.7" class="st25" width="15.9" height="15.9"/>
	<rect x="191.2" y="63.7" class="st0" width="31.9" height="31.9"/>
	<rect x="191.2" y="63.7" class="st26" width="15.9" height="15.9"/>
	<rect x="207.1" y="63.7" class="st27" width="15.9" height="15.9"/>
	<rect x="191.2" y="79.7" class="st28" width="15.9" height="15.9"/>
	<rect x="207.1" y="79.7" class="st29" width="15.9" height="15.9"/>
	<rect x="223.1" y="63.7" class="st20" width="31.9" height="31.9"/>
	<rect x="318.7" y="63.7" class="st30" width="31.9" height="31.9"/>
	<rect x="350.5" y="63.7" class="st31" width="31.9" height="31.9"/>
	<rect x="382.4" y="63.7" class="st32" width="31.9" height="31.9"/>
	<rect x="541.7" y="63.7" class="st0" width="31.9" height="31.9"/>
	<rect x="557.7" y="63.7" class="st18" width="15.9" height="15.9"/>
	<rect x="541.7" y="79.7" class="st33" width="15.9" height="15.9"/>
	<rect x="557.7" y="79.7" class="st34" width="15.9" height="15.9"/>
	<rect x="573.6" y="63.7" class="st35" width="31.9" height="31.9"/>
	<rect x="605.5" y="63.7" class="st0" width="31.9" height="31.9"/>
	<rect x="621.4" y="63.7" class="st36" width="15.9" height="15.9"/>
	<rect x="605.5" y="79.7" class="st30" width="15.9" height="15.9"/>
	<rect x="621.4" y="79.7" class="st37" width="15.9" height="15.9"/>
	<rect x="637.3" y="63.7" class="st0" width="31.9" height="31.9"/>
	<rect x="637.3" y="63.7" class="st21" width="15.9" height="15.9"/>
	<rect x="637.3" y="79.7" class="st38" width="15.9" height="15.9"/>
	<rect x="669.2" y="63.7" class="st39" width="31.9" height="31.9"/>
	<rect x="701.1" y="63.7" class="st13" width="31.9" height="31.9"/>
	<rect x="732.9" y="63.7" class="st39" width="31.9" height="31.9"/>
	<rect x="764.8" y="63.7" class="st0" width="31.9" height="31.9"/>
	<rect x="764.8" y="63.7" class="st40" width="15.9" height="15.9"/>
	<rect x="780.7" y="63.7" class="st41" width="15.9" height="15.9"/>
	<rect x="764.8" y="79.7" class="st42" width="15.9" height="15.9"/>
	<rect x="780.7" y="79.7" class="st43" width="15.9" height="15.9"/>
	<rect x="796.7" y="63.7" class="st0" width="31.9" height="31.9"/>
	<rect x="796.7" y="63.7" class="st44" width="15.9" height="15.9"/>
	<rect x="796.7" y="79.7" class="st27" width="15.9" height="15.9"/>
	<rect x="812.6" y="79.7" class="st0" width="15.9" height="15.9"/>
	<rect x="828.5" y="63.7" class="st0" width="31.9" height="31.9"/>
	<rect x="828.5" y="63.7" class="st18" width="15.9" height="15.9"/>
	<rect x="844.5" y="63.7" class="st45" width="15.9" height="15.9"/>
	<rect x="828.5" y="79.7" class="st46" width="15.9" height="15.9"/>
	<rect x="844.5" y="79.7" class="st47" width="15.9" height="15.9"/>
	<rect x="860.4" y="63.7" class="st48" width="31.9" height="31.9"/>
	<rect x="892.3" y="63.7" class="st0" width="31.9" height="31.9"/>
	<rect x="892.3" y="63.7" class="st49" width="15.9" height="15.9"/>
	<rect x="892.3" y="79.7" class="st32" width="15.9" height="15.9"/>
	<rect x="908.2" y="79.7" class="st48" width="15.9" height="15.9"/>
	<rect x="924.1" y="63.7" class="st50" width="31.9" height="31.9"/>
</g>
</svg>
